<?xml version="1.0" standalone="no"?><!DOCTYPE svg PUBLIC "-//W3C//DTD SVG 1.1//EN" "http://www.w3.org/Graphics/SVG/1.1/DTD/svg11.dtd"><svg t="1564591832299" class="icon" viewBox="0 0 1129 1024" version="1.1" xmlns="http://www.w3.org/2000/svg" p-id="3064" xmlns:xlink="http://www.w3.org/1999/xlink" width="70.5625" height="64"><defs><style type="text/css"></style></defs><path d="M563.349186 1007.916138c-214.951724 0-414.437517-97.103448-546.992552-266.593104a77.011862 77.011862 0 0 1 13.24138-108.120275 76.941241 76.941241 0 0 1 108.279172 13.241379c103.123862 131.813517 258.189241 207.448276 425.472 207.448276 169.030621 0 325.137655-76.958897 428.261517-210.979311a77.117793 77.117793 0 0 1 122.403311 93.854897C981.317738 909.064828 780.649048 1007.933793 563.349186 1007.933793zM216.283807 385.588966a115.553103 115.553103 0 0 1-115.641379-115.64138V115.641379A115.553103 115.553103 0 0 1 216.283807 0a115.553103 115.553103 0 0 1 115.641379 115.641379v154.306207a115.641379 115.641379 0 0 1-115.641379 115.64138z m694.095448 0a115.641379 115.641379 0 0 1-115.641379-115.64138V115.641379a115.641379 115.641379 0 0 1 231.282758 0v154.306207c0.141241 63.858759-51.782621 115.641379-115.641379 115.64138z" fill="#d81e06" p-id="3065"></path></svg>