<?xml version="1.0" standalone="no"?><!DOCTYPE svg PUBLIC "-//W3C//DTD SVG 1.1//EN" "http://www.w3.org/Graphics/SVG/1.1/DTD/svg11.dtd"><svg t="1562576249156" class="icon" viewBox="0 0 1024 1024" version="1.1" xmlns="http://www.w3.org/2000/svg" p-id="1990" xmlns:xlink="http://www.w3.org/1999/xlink" width="16" height="16"><defs><style type="text/css"></style></defs><path d="M512 0a512 512 0 1 0 512 512 512 512 0 0 0-512-512z m0 960a448 448 0 1 1 448-448 448 448 0 0 1-448 448z" p-id="1991"></path><path d="M782.08 480H544V241.92a32 32 0 1 0-64 0V480H241.92a32 32 0 1 0 0 64H480v238.08a32 32 0 0 0 64 0V544h238.08a32 32 0 0 0 0-64z" p-id="1992"></path></svg>