<?xml version="1.0" standalone="no"?><!DOCTYPE svg PUBLIC "-//W3C//DTD SVG 1.1//EN" "http://www.w3.org/Graphics/SVG/1.1/DTD/svg11.dtd"><svg t="1552830694741" class="icon" style="" viewBox="0 0 1024 1024" version="1.1" xmlns="http://www.w3.org/2000/svg" p-id="9145" xmlns:xlink="http://www.w3.org/1999/xlink" width="32" height="32"><defs><style type="text/css"></style></defs><path d="M1024 512C1024 228.266667 795.733333 0 512 0S0 228.266667 0 512s228.266667 512 512 512 512-228.266667 512-512z m-509.866667 185.6V554.666667h-170.666666c-23.466667 0-42.666667-19.2-42.666667-42.666667s19.2-42.666667 42.666667-42.666667h170.666666v-142.933333c0-10.666667 12.8-14.933333 19.2-8.533333l185.6 185.6c4.266667 4.266667 4.266667 10.666667 0 17.066666L533.333333 706.133333c-6.4 6.4-19.2 2.133333-19.2-8.533333z" p-id="9146"></path></svg>