<?xml version="1.0" standalone="no"?><!DOCTYPE svg PUBLIC "-//W3C//DTD SVG 1.1//EN" "http://www.w3.org/Graphics/SVG/1.1/DTD/svg11.dtd"><svg t="1552792996248" class="icon" style="" viewBox="0 0 1024 1024" version="1.1" xmlns="http://www.w3.org/2000/svg" p-id="9647" xmlns:xlink="http://www.w3.org/1999/xlink" width="200" height="200"><defs><style type="text/css"></style></defs><path d="M166.836439 670.183379h115.050086v57.525043h-115.050086z" p-id="9648"></path><path d="M885.927617 152.44776H253.124515c-47.583643 0-86.288076 38.734109-86.288076 86.317751v57.497414h-28.76508c-47.583643 0-86.288076 38.734109-86.288076 86.317752v402.684511c0 47.554991 38.704433 86.288076 86.288076 86.288076h604.043139c47.57955 0 86.287053-38.734109 86.287053-86.288076h57.52709c47.580573 0 86.289099-38.736155 86.289099-86.317752V238.765511c0-47.583643-38.70955-86.317752-86.290123-86.317751zM770.875485 785.264164c0 15.841772-12.921262 28.735404-28.760987 28.735404H138.070336c-15.869401 0-28.760987-12.893632-28.760986-28.735404V526.395843h661.566135v258.868321z m0-316.422017H109.30935v-86.26147c0-15.899077 12.892609-28.763033 28.760986-28.763033h604.043139c15.839725 0 28.760987 12.863957 28.760986 28.763033v86.26147h0.001024zM914.691674 698.947436c0 15.89703-12.920238 28.760987-28.763033 28.760986h-57.52709V382.580677c0-47.583643-38.707503-86.317752-86.287053-86.317752H224.361482v-57.497414c0-15.899077 12.891586-28.792709 28.76201-28.792709h632.804125c15.842795 0 28.763033 12.893632 28.763033 28.792709V698.947436z" p-id="9649"></path></svg>