<?xml version="1.0" standalone="no"?><!DOCTYPE svg PUBLIC "-//W3C//DTD SVG 1.1//EN" "http://www.w3.org/Graphics/SVG/1.1/DTD/svg11.dtd"><svg t="1555520566648" class="icon" style="" viewBox="0 0 1024 1024" version="1.1" xmlns="http://www.w3.org/2000/svg" p-id="10008" xmlns:xlink="http://www.w3.org/1999/xlink" width="32" height="32"><defs><style type="text/css"></style></defs><path d="M946.496 889.856H79.616c-37.12 0-69.376-29.888-69.376-67.264V249.92c0-37.12 32.256-73.344 69.376-73.344h866.88c37.12 0 67.264 36.16 67.264 73.344v572.736a67.136 67.136 0 0 1-67.264 67.2z m33.536-639.936c0-18.176-14.848-39.232-33.344-39.232H79.68c-18.368 0-35.456 21.056-35.456 39.232v572.736c0 18.24 17.088 33.28 35.456 33.28H946.56a33.28 33.28 0 0 0 33.344-33.28l0.128-572.736z m-306.56 436.096h187.264v33.984h-187.264v-33.984z m0-84.992h187.264v34.112h-187.264v-34.112zM605.44 516.16h255.168v33.984H605.44v-33.984z m-33.792-84.736h289.344v33.984H571.648v-33.984z m0-85.056h289.344v33.92H571.648v-33.92zM537.6 737.152H163.2a17.024 17.024 0 0 1-16.896-17.28V639.616c0-49.344 40.128-107.84 89.536-107.84h11.712c-10.368-25.664-16.256-36.992-16.256-68.736 0-94.72 52.672-134.976 117.504-134.976 64.64 0 117.376 40.256 117.376 134.976 0 31.744-6.08 43.072-16.576 68.736h15.104c49.344 0 89.536 58.496 89.536 107.84v80.256a16.768 16.768 0 0 1-16.64 17.28z m-17.152-97.408c0-30.72-25.024-73.984-55.552-73.984H432c-21.12 31.488-50.624 40-83.136 40-32.768 0-62.272-8.512-83.52-40h-29.312c-30.656 0-55.744 43.264-55.744 73.984v63.104h340.096l0.064-63.104z" fill="#1d91f3" p-id="10009"></path></svg>