<?xml version="1.0" standalone="no"?><!DOCTYPE svg PUBLIC "-//W3C//DTD SVG 1.1//EN" "http://www.w3.org/Graphics/SVG/1.1/DTD/svg11.dtd"><svg t="1552794183201" class="icon" style="" viewBox="0 0 1024 1024" version="1.1" xmlns="http://www.w3.org/2000/svg" p-id="22221" xmlns:xlink="http://www.w3.org/1999/xlink" width="200" height="200"><defs><style type="text/css"></style></defs><path d="M582.144 588.288c23.04-27.648 36.864-63.488 36.864-101.888 0-88.576-71.68-159.744-159.744-159.744S299.52 398.336 299.52 486.4s71.68 159.744 159.744 159.744c35.328 0 67.584-11.264 94.208-30.72l114.688 114.688c6.144 6.144 16.384 6.144 22.528 0l5.632-5.632c6.144-6.144 6.144-16.384 0-22.528l-114.176-113.664z m-49.152-515.584c6.144 6.144 11.264 10.752 16.384 14.336 69.632 52.736 196.096 87.04 311.296 94.72 4.096 0.512 9.728 0.512 16.384 1.024 8.704 0.512 15.36 7.68 15.36 16.896v342.016c0 81.408-33.28 166.4-87.552 224.768-28.16 38.912-64 75.776-101.376 111.616-99.328 107.52-267.264 107.008-375.296 11.776-42.496-37.376-81.408-81.408-116.224-131.072-51.2-57.856-79.36-134.144-79.36-212.992V200.192c0-9.216 6.656-16.384 15.36-16.896 7.68-0.512 14.336-0.512 18.944-1.024 115.712-8.192 242.176-43.008 310.784-96.256 4.608-3.584 9.216-7.68 14.336-13.312 11.264-11.776 29.184-11.776 40.96 0zM458.752 598.016c-61.952 0-112.128-50.176-112.128-112.128S397.312 373.76 458.752 373.76s112.128 50.176 112.128 112.128-50.176 112.128-112.128 112.128z" p-id="22222"></path></svg>