<?xml version="1.0" standalone="no"?><!DOCTYPE svg PUBLIC "-//W3C//DTD SVG 1.1//EN" "http://www.w3.org/Graphics/SVG/1.1/DTD/svg11.dtd"><svg t="1562677389162" class="icon" viewBox="0 0 1024 1024" version="1.1" xmlns="http://www.w3.org/2000/svg" p-id="6421" xmlns:xlink="http://www.w3.org/1999/xlink" width="16" height="16"><defs><style type="text/css"></style></defs><path d="M544 64C279.04 64 64 279.04 64 544s215.04 480 480 480 480-215.04 480-480S808.96 64 544 64z m0 896c-229.76 0-416-186.24-416-416s186.24-416 416-416 416 186.24 416 416-186.24 416-416 416z m44.16-419.2l168.32-166.4c12.8-12.8 12.8-33.28 0-45.44-12.8-12.8-33.28-12.8-46.08 0L542.08 494.08 376.96 328.32c-12.8-12.8-33.28-12.8-45.44 0-12.8 12.8-12.8 33.28 0 45.44L496 539.52l-174.72 172.8c-12.8 12.8-12.8 33.28 0 45.44 12.8 12.8 33.28 12.8 46.08 0L541.44 585.6l171.52 172.16c12.8 12.8 33.28 12.8 45.44 0 12.8-12.8 12.8-33.28 0-45.44L588.16 540.8z" p-id="6422" fill="#00e8fe"></path></svg>