<?xml version="1.0" standalone="no"?><!DOCTYPE svg PUBLIC "-//W3C//DTD SVG 1.1//EN" "http://www.w3.org/Graphics/SVG/1.1/DTD/svg11.dtd"><svg t="1552793463211" class="icon" style="" viewBox="0 0 1024 1024" version="1.1" xmlns="http://www.w3.org/2000/svg" p-id="14751" xmlns:xlink="http://www.w3.org/1999/xlink" width="200" height="200"><defs><style type="text/css"></style></defs><path d="M970.914251 370.758621C961.248927 370.758621 953.37931 362.956094 953.37931 352.976084L953.37931 935.851502C953.37931 925.920503 961.34091 918.068966 970.914251 918.068966L53.085749 918.068966C62.751073 918.068966 70.62069 925.871492 70.62069 935.851502L70.62069 352.976084C70.62069 362.907083 62.65909 370.758621 53.085749 370.758621L970.914251 370.758621ZM0 352.976084 0 935.851502C0 965.010132 23.883034 988.689655 53.085749 988.689655L970.914251 988.689655C1000.125263 988.689655 1024 965.144964 1024 935.851502L1024 352.976084C1024 323.817454 1000.116966 300.137931 970.914251 300.137931L53.085749 300.137931C23.874737 300.137931 0 323.682622 0 352.976084ZM918.023945 247.172414C937.525319 247.172414 953.33429 231.363425 953.33429 211.862069 953.33429 192.360713 937.525319 176.551724 918.023945 176.551724L105.976055 176.551724C86.474681 176.551724 70.66571 192.360713 70.66571 211.862069 70.66571 231.363425 86.474681 247.172414 105.976055 247.172414L918.023945 247.172414ZM282.527779 52.965517C263.026406 52.965517 247.217434 68.774506 247.217434 88.275862 247.217434 107.777218 263.026406 123.586207 282.527779 123.586207L741.472221 123.586207C760.973594 123.586207 776.782566 107.777218 776.782566 88.275862 776.782566 68.774506 760.973594 52.965517 741.472221 52.965517L282.527779 52.965517ZM688.612988 776.827586C708.114185 776.827586 723.923332 761.018598 723.923332 741.517241 723.923332 722.015885 708.114185 706.206897 688.612988 706.206897L335.387012 706.206897C315.885815 706.206897 300.076668 722.015885 300.076668 741.517241 300.076668 761.018598 315.885815 776.827586 335.387012 776.827586L688.612988 776.827586ZM335.387012 582.62069C315.885815 582.62069 300.076668 598.429678 300.076668 617.931034 300.076668 637.432391 315.885815 653.241379 335.387012 653.241379L688.612988 653.241379C708.114185 653.241379 723.923332 637.432391 723.923332 617.931034 723.923332 598.429678 708.114185 582.62069 688.612988 582.62069L335.387012 582.62069ZM476.689655 847.500712C476.689655 867.002068 492.498626 882.811057 512 882.811057 531.501374 882.811057 547.310345 867.002068 547.310345 847.500712L547.310345 635.533771C547.310345 616.032415 531.501374 600.223426 512 600.223426 492.498626 600.223426 476.689655 616.032415 476.689655 635.533771L476.689655 847.500712ZM549.483167 621.296799 674.262334 496.517632C688.051906 482.728095 688.051906 460.37082 674.262334 446.581266 660.472761 432.791729 638.115487 432.791729 624.325914 446.581266L499.546748 571.360433C506.454687 564.452599 517.519007 564.426205 524.453252 571.360433 510.66368 557.570895 488.306406 557.570895 474.516833 571.360433 460.727261 585.149987 460.727261 607.507262 474.516833 621.296799 495.215228 641.99514 528.865103 641.91488 549.483167 621.296799ZM474.516833 621.296799C488.306406 635.086354 510.66368 635.086354 524.453252 621.296799 538.242825 607.507262 538.242825 585.149987 524.453252 571.360433L399.674086 446.581266C385.884513 432.791729 363.527239 432.791729 349.737666 446.581266 335.948094 460.37082 335.948094 482.728095 349.737666 496.517632L474.516833 621.296799Z" p-id="14752"></path></svg>