<?xml version="1.0" standalone="no"?><!DOCTYPE svg PUBLIC "-//W3C//DTD SVG 1.1//EN" "http://www.w3.org/Graphics/SVG/1.1/DTD/svg11.dtd"><svg t="1574875092370" class="icon" viewBox="0 0 1197 1024" version="1.1" xmlns="http://www.w3.org/2000/svg" p-id="4050" xmlns:xlink="http://www.w3.org/1999/xlink" width="233.7890625" height="200"><defs><style type="text/css"></style></defs><path d="M1092.734361 1024H52.030993A55.956284 55.956284 0 0 1 0 971.969007V100.22021a55.956284 55.956284 0 0 1 52.030993-51.863958A55.956284 55.956284 0 0 1 104.061985 100.22021v806.522144h988.672376a55.956284 55.956284 0 0 1 52.030993 52.030992c0 39.169399-25.63967 65.226654-52.030993 65.226654z m-728.517413-169.121605H260.154963a55.956284 55.956284 0 0 1-52.030993-52.030993V204.449229a55.956284 55.956284 0 0 1 52.030993-52.030992h104.061985a55.956284 55.956284 0 0 1 52.030993 52.030992v598.398173a55.956284 55.956284 0 0 1-52.030993 52.030993z m286.212218 0H546.36718a55.956284 55.956284 0 0 1-52.030992-52.030993V698.785417a55.956284 55.956284 0 0 1 52.030992-52.030992h104.061986a55.956284 55.956284 0 0 1 52.030992 52.030992v104.061985c13.028627 26.057255-13.028627 52.030993-52.030992 52.030993zM885.278525 624.455428c-169.121605 0-299.240845-143.06435-299.240845-312.185956S716.407471 0 885.278525 0s312.185955 143.06435 312.185956 312.185955-142.8138 312.269472-312.185956 312.269473z m141.978632-537.096811l-116.923579 169.121605-103.811435-169.121605-52.030992 39.002365 91.033358 143.06435h-91.033358v52.11451h116.923579v78.088247h-116.923579v52.030993h116.923579v116.923578h65.05962V425.935894h116.923578v-39.336432h-116.923578v-78.088248h116.923578v-52.030992h-91.033357l91.033357-143.064351z" p-id="4051"></path></svg>