<?xml version="1.0" standalone="no"?><!DOCTYPE svg PUBLIC "-//W3C//DTD SVG 1.1//EN" "http://www.w3.org/Graphics/SVG/1.1/DTD/svg11.dtd"><svg t="1557335092187" class="icon" style="" viewBox="0 0 1024 1024" version="1.1" xmlns="http://www.w3.org/2000/svg" p-id="1433" xmlns:xlink="http://www.w3.org/1999/xlink" width="16" height="16"><defs><style type="text/css"></style></defs><path d="M1017.432 511.427C1017.432 234.409 792.045 9 514.986 9 237.968 9 12.581 234.409 12.581 511.427c0 277.019 225.387 502.446 502.405 502.446 126.938 0 242.68-47.689 331.217-125.61 0.745-0.457 1.203-1.202 1.907-1.744 103.592-92.105 169.322-225.885 169.322-375.092z m-962.386 0c0-253.628 206.312-459.962 459.94-459.962s459.98 206.334 459.98 459.962c0 131.46-55.777 249.937-144.521 333.829-155.843-65.977-184.623-96.996-189.559-104.377v-29.237c26.375-29.152 47.028-67.18 60.131-110.726 16.588-14.098 27.618-34.043 30.687-55.939 3.069-22.27-2.113-44.25-14.719-62.746v-87.375c0-117.815-72.738-185.412-199.595-185.412-124.989 0-199.635 69.338-199.635 185.412v87.46c-12.567 18.411-17.75 40.348-14.681 62.576 3.028 21.855 14.017 41.886 30.564 55.943 13.144 43.583 33.797 81.614 60.212 110.807v29.528c-5.142 8.831-34.047 38.854-193.081 105.248-89.451-83.975-145.723-202.911-145.723-334.991z m182.092 365.677c160.778-68.673 190.926-101.932 198.226-125.318 0.62-2.076 0.952-4.23 0.952-6.348v-42.174a21.17 21.17 0 0 0-6.054-14.847c-25.751-26.331-45.7-62.908-57.685-105.831a21.371 21.371 0 0 0-8.211-11.608c-10.45-7.385-17.458-18.994-19.241-31.893-1.782-13.063 1.867-26.002 10.325-36.368 3.069-3.814 4.77-8.543 4.77-13.438v-94.425c0-92.186 55.818-142.947 157.17-142.947 102.803 0 157.13 49.433 157.13 142.947v94.425a21.2 21.2 0 0 0 4.767 13.353c8.502 10.451 12.15 23.431 10.328 36.496-1.785 12.938-8.794 24.509-19.244 31.85a21.202 21.202 0 0 0-8.252 11.652c-11.984 42.919-31.93 79.496-57.641 105.787a21.176 21.176 0 0 0-6.057 14.847v42.174a22.2 22.2 0 0 0 0.955 6.348c4.394 14.058 14.597 46.113 194.947 124.241-77.548 59.551-174.213 95.381-279.338 95.381-104.461 0-200.546-35.416-277.847-94.304z"  p-id="1434"></path></svg>