<?xml version="1.0" standalone="no"?><!DOCTYPE svg PUBLIC "-//W3C//DTD SVG 1.1//EN" "http://www.w3.org/Graphics/SVG/1.1/DTD/svg11.dtd"><svg t="1552816937775" class="icon" style="" viewBox="0 0 1024 1024" version="1.1" xmlns="http://www.w3.org/2000/svg" p-id="3383" xmlns:xlink="http://www.w3.org/1999/xlink" width="200" height="200"><defs><style type="text/css"></style></defs><path d="M510.230704 766.272147c-18.154475 0-21.73707-18.195408-21.73707-36.225039l0-86.948281c0-18.029632 3.582595-39.85266 21.73707-39.85266 18.149359 0 21.73707 21.823028 21.73707 39.85266l0 86.948281C531.967774 748.07674 528.380062 766.272147 510.230704 766.272147L510.230704 766.272147zM839.071174 961.907826 181.390233 961.907826c-54.391794 0-98.653881-43.886533-98.653881-97.81784L82.736353 505.428328c0-53.925167 47.047526-94.191242 101.43932-94.191242l652.110061 0c54.387701 0 101.438297 40.266076 101.438297 94.191242l0 358.661659C937.724031 918.021294 893.456828 961.907826 839.071174 961.907826L839.071174 961.907826zM198.666712 454.711226c-43.119053 0-70.076008 22.144346-72.456219 57.96518l0 347.792101c0 18.000979 39.845497 57.96518 57.96518 57.96518l652.110061 0c18.149359 0 57.96518-39.9642 57.96518-57.96518L894.250914 512.676405c0-39.393195-17.198707-57.96518-57.96518-57.96518L198.666712 454.711226 198.666712 454.711226zM740.417293 443.843714c-18.184151 0-20.061918-0.11461-20.061918-18.11559l0-115.930359c0-110.822015-123.419937-202.87864-217.369679-202.87864-96.153944 0-202.87864 81.97706-202.87864 202.87864l0 101.43932c0 18.000979-1.914606 32.606629-20.062941 32.606629-18.153452 0-23.411199-14.605649-23.411199-32.606629l0-101.43932c0-161.723312 117.873618-246.352781 246.352781-246.352781 125.255749 0 260.84382 93.828992 260.84382 246.352781l0 115.930359C763.829516 443.729104 758.600421 443.843714 740.417293 443.843714L740.417293 443.843714zM740.417293 443.843714" p-id="3384"></path></svg>