<?xml version="1.0" standalone="no"?><!DOCTYPE svg PUBLIC "-//W3C//DTD SVG 1.1//EN" "http://www.w3.org/Graphics/SVG/1.1/DTD/svg11.dtd"><svg t="1562081504190" class="icon" viewBox="0 0 1024 1024" version="1.1" xmlns="http://www.w3.org/2000/svg" p-id="3980" xmlns:xlink="http://www.w3.org/1999/xlink" width="16" height="16"><defs><style type="text/css"></style></defs><path d="M665.40824 659.655431H246.092385c-10.227216 0-15.340824 5.113608-15.340824 15.340824 0 10.227216 5.113608 15.340824 15.340824 15.340824H665.40824c10.227216 0 15.340824-5.113608 15.340824-15.340824 0-10.227216-5.113608-15.340824-15.340824-15.340824z m0-143.181024H246.092385c-10.227216 0-15.340824 5.113608-15.340824 15.340824 0 10.227216 5.113608 15.340824 15.340824 15.340824H665.40824c10.227216 0 15.340824-5.113608 15.340824-15.340824 0-10.227216-5.113608-15.340824-15.340824-15.340824z m0-143.181024H246.092385c-10.227216 0-15.340824 5.113608-15.340824 15.340824 0 10.227216 5.113608 15.340824 15.340824 15.340824H665.40824c10.227216 0 15.340824-5.113608 15.340824-15.340824 0-10.227216-5.113608-15.340824-15.340824-15.340824z" p-id="3981"></path><path d="M967.111111 127.8402c0-71.590512-61.363296-127.8402-132.953808-127.8402H184.729089C113.138577 0 56.888889 56.249688 56.888889 127.8402v751.700374c0 10.227216 5.113608 20.454432 10.227216 25.56804l107.385768 102.27216c10.227216 15.340824 30.681648 15.340824 46.022472 0l107.385767-102.27216 112.499376 107.385768c15.340824 15.340824 35.795256 15.340824 46.022472 0l112.499376-107.385768 112.499376 107.385768c5.113608 5.113608 15.340824 10.227216 25.56804 10.227216s15.340824-5.113608 25.56804-10.227216l102.272159-97.158552c5.113608-5.113608 10.227216-15.340824 10.227216-25.56804V255.6804c51.13608-15.340824 92.044944-66.476904 92.044944-127.8402z m-230.112359 823.290886l-112.499376-107.385768c-15.340824-15.340824-35.795256-15.340824-46.022472 0l-112.499376 107.385768-112.499376-107.385768c-15.340824-15.340824-35.795256-15.340824-46.022472 0l-107.385767 102.27216L113.138577 869.313358V127.8402c0-30.681648 25.56804-66.476904 61.363296-66.476904h15.340824c35.795256 0 61.363296 20.454432 61.363296 66.476904 0 30.681648-25.56804 61.363296-61.363296 61.363296-20.454432 0-35.795256 15.340824-35.795256 35.795256 0 15.340824 15.340824 30.681648 30.681648 30.681648h628.973782v618.746566l-76.704119 76.70412z m97.158551-751.700374H281.88764c5.113608-15.340824 25.56804-51.13608 25.56804-71.590512 0-20.454432-5.113608-51.13608-15.340824-71.590512h542.042447c35.795256 0 76.70412 40.908864 76.70412 71.590512 0 35.795256-40.908864 71.590512-76.70412 71.590512z" p-id="3982"></path></svg>