<?xml version="1.0" standalone="no"?><!DOCTYPE svg PUBLIC "-//W3C//DTD SVG 1.1//EN" "http://www.w3.org/Graphics/SVG/1.1/DTD/svg11.dtd"><svg t="1552796129397" class="icon" style="" viewBox="0 0 1024 1024" version="1.1" xmlns="http://www.w3.org/2000/svg" p-id="2565" xmlns:xlink="http://www.w3.org/1999/xlink" width="200" height="200"><defs><style type="text/css"></style></defs><path d="M48.512 599.712v194.272h974.464v-194.272H48.512z m30.72 142.464a13.216 13.216 0 0 1-13.056-13.088c0-7.456 5.824-13.088 13.056-13.088 7.2 0 13.024 5.632 13.024 13.088a13.184 13.184 0 0 1-13.024 13.088z m-5.824-36.96c0-3.296 2.784-5.632 5.824-5.632 3.264 0 5.792 2.336 5.792 5.632s-2.56 5.824-5.792 5.824a5.888 5.888 0 0 1-5.824-5.824z m21.184-38.144h-30.752v-13.6h30.752v13.6z m320.256 99.072h-300.48v-144.896h300.48v144.896z m22.08-36.096a12.288 12.288 0 0 1-12.352-12.16 12.48 12.48 0 0 1 12.352-12.672c6.976 0 12.32 5.632 12.32 12.672a12.064 12.064 0 0 1-12.32 12.16z m0-38.4a12.32 12.32 0 1 1 0-24.608c6.976 0 12.32 5.344 12.32 12.384a12.096 12.096 0 0 1-12.32 12.224z m0-38.176a12.544 12.544 0 0 1-12.352-12.672c0-6.56 5.568-12.16 12.352-12.16 6.976 0 12.32 5.6 12.32 12.16a12.32 12.32 0 0 1-12.32 12.672z m57.024 70.944h-35.616v-13.376h35.616v13.376z m0-38.4h-35.616v-13.376h35.616v13.376z m0-38.432h-35.616v-13.344h35.616v13.344z m450.816 93.216a55.136 55.136 0 0 1-54.976-55.456c0-30.72 24.512-55.52 54.976-55.52s55.136 24.8 55.136 55.52c0 30.656-24.64 55.456-55.136 55.456z" p-id="2566"></path><path d="M977.12 685.344c0 17.984-14.432 32.576-32.352 32.576a32.32 32.32 0 0 1-32.128-32.576 32.256 32.256 0 1 1 64.48 0z m-32.352-16.192a16.16 16.16 0 1 0 0.16 32.32 16.16 16.16 0 0 0-0.16-32.32zM852.832 317.152a81.92 81.92 0 0 0 22.08-56.224c0-24.576-10.72-46.592-27.904-61.6l11.392-9.856c19.104 17.696 31.36 43.104 31.36 71.424 0 25.632-9.952 48.736-26.016 66.048l-10.912-9.792z m-19.296-17.12l-11.2-9.824a41.152 41.152 0 0 0-6.272-63.456l11.36-10.08c13.28 10.208 21.92 26.24 21.92 44.256 0 15.232-6.272 29.056-15.808 39.104z m-47.04-42.72a11.2 11.2 0 0 1 22.368 0v141.216h-22.336V257.312h-0.032z m-33.056 3.616c0 13.248 6.048 24.96 15.808 32.448l-11.36 9.952a56.384 56.384 0 0 1 2.784-86.784l11.2 10.048c-11.2 7.424-18.432 20.064-18.432 34.336z m-40.48 0c0 23.552 9.792 44.64 25.632 59.488l-11.424 9.824a96.928 96.928 0 0 1 2.592-140.896l11.168 9.824a82.496 82.496 0 0 0-27.968 61.76zM912.672 398.528H299.616c0 88.416-71.2 160.096-158.944 160.096a157.92 157.92 0 0 1-60.352-12.064l-31.808 48.48h974.464l-110.304-196.512z" p-id="2567"></path><path d="M140.672 258.72c-76.832 0-138.944 62.656-138.944 139.808 0 77.312 62.112 140 138.944 140 76.8 0 138.944-62.688 138.944-140 0-77.184-62.144-139.808-138.944-139.808z m102.4 199.2a119.008 119.008 0 0 1-15.136 21.344 27.52 27.52 0 0 0-30.464 6.048 28.32 28.32 0 0 0-8.16 20c0 0.832 0 1.504 0.224 2.336a119.552 119.552 0 0 1-29.344 9.632 27.776 27.776 0 0 0-27.456-25.888c-13.76 0-24.448 9.952-27.008 22.848a113.696 113.696 0 0 1-31.2-14.88c0.704-2.56 1.632-5.28 1.632-8.192a28.096 28.096 0 0 0-27.936-28.064c-2.784 0-5.344 0.928-7.904 1.6a121.952 121.952 0 0 1-14.912-31.488 27.744 27.744 0 0 0 22.592-26.944 27.808 27.808 0 0 0-25.6-27.648c2.08-12.032 5.792-23.52 11.392-34.048a25.376 25.376 0 0 0 14.432 4.768 28.16 28.16 0 0 0 27.936-28.064 28.16 28.16 0 0 0-7.008-18.304c7.04-5.504 14.72-9.952 22.848-13.696a28.384 28.384 0 0 0 54.72-9.504c9.76 0.608 19.776 2.24 29.12 5.184a23.584 23.584 0 0 0-1.408 8.192c0 15.68 12.8 28.32 28.384 28.32a27.872 27.872 0 0 0 19.776-8.192c5.824 5.632 10.944 11.712 15.36 18.272a28.48 28.48 0 0 0-4.672 28.928 27.968 27.968 0 0 0 23.52 17.44c1.152 6.912 2.08 14.048 2.08 21.312 0 2.432-0.48 4.896-0.704 7.36a28.064 28.064 0 0 0-26.976 28.224c0 9.504 4.672 17.92 11.872 23.104z" p-id="2568"></path><path d="M207.712 408.832a14.4 14.4 0 0 0 1.152-26.464 13.568 13.568 0 0 0-11.168-0.128c-0.48-1.28-0.704-2.592-1.184-3.872a43.584 43.584 0 0 0-4.896-10.048c0.48-0.128 0.928-0.128 1.408-0.256a14.176 14.176 0 0 0 7.904-18.144 13.76 13.76 0 0 0-17.472-8.672 12.8 12.8 0 0 0-8.384 8.544 71.552 71.552 0 0 0-10.72-6.112 14.304 14.304 0 0 0-2.304-15.904 14.016 14.016 0 0 0-24.416 10.784c-5.12 0.096-10.24 0.928-15.136 2.336v-0.48a15.136 15.136 0 0 0-7.68-8.064 14.752 14.752 0 0 0-19.072 7.008 14.016 14.016 0 0 0-0.48 11.008 9.376 9.376 0 0 0 2.784 4.576 63.04 63.04 0 0 0-8.832 10.656 13.504 13.504 0 0 0-11.392-1.184 14.464 14.464 0 0 0-8.16 7.36 14.016 14.016 0 0 0 10.016 19.808c-0.928 5.952-0.448 12.064 0.48 18.016-0.48 0.096-0.928 0-1.376 0.224a14.4 14.4 0 0 0-7.936 7.488 15.04 15.04 0 0 0-0.48 11.008c1.184 3.52 3.968 6.464 7.456 8.064a13.632 13.632 0 0 0 10.688 0.608c0.928-0.352 1.632-1.056 2.56-1.536 3.488 4.8 7.936 8.672 12.576 12.16-5.152 3.776-7.232 10.304-5.152 16.288a14.08 14.08 0 1 0 27.264-5.984c5.568 1.408 11.392 2.208 17.472 1.856 0 0.96 0 2.016 0.448 2.944 2.56 7.488 10.944 11.328 18.112 8.544a14.272 14.272 0 0 0 8.64-18.4c0-0.448-0.48-0.704-0.48-1.056a59.52 59.52 0 0 0 12.096-9.728 14.08 14.08 0 0 0 17.696 7.712 14.592 14.592 0 0 0 8.608-18.496 14.56 14.56 0 0 0-12.576-9.472 61.12 61.12 0 0 0 3.264-13.024c3.072 0.96 5.824 0.96 8.672 0.032z m-67.968 34.88a44.352 44.352 0 0 1-44.224-44.48c0-24.608 19.808-44.48 44.224-44.48 24.448 0 44.224 19.872 44.224 44.48 0 24.608-19.808 44.48-44.224 44.48z m0-70.688a26.24 26.24 0 0 0 0 52.448c14.176 0 26.048-11.84 26.048-26.208a26.304 26.304 0 0 0-26.048-26.24z" p-id="2569"></path></svg>